PathFileType	4	(X/Y/Z)	Patient4_TMGait_0pt7_01_left_46.trc.trc
DataRate	CameraRate	NumFrames	NumMarkers	Units	OrigDataRate	OrigDataStartFrame	OrigNumFrames
83.832335329341	83.832335329341	4	33	mm	83.832335329341	71	       141
Frame#	Time	Sacral			L.Shoulder			Chest			R.Shoulder			Neck			R.ASIS			L.ASIS			R.Thigh.Superior			R.Thigh.Lateral			R.Thigh.Inferior			R.Patella			L.Thigh.Superior			L.Thigh.Lateral			L.Thigh.Inferior			L.Patella			L.Shank.Superior			L.Shank.Lateral			L.Shank.Inferior			R.Shank.Superior			R.Shank.Lateral			R.Shank.Inferior			R.Heel			R.Midfoot.Superior			R.Midfoot.Lateral			R.Toe			L.Heel			L.Midfoot.Lateral			L.Midfoot.Superior			L.Toe			L.Elbow			L.Wrist			R.Elbow			R.Wrist			
		X1	Y1	Z1	X2	Y2	Z2	X3	Y3	Z3	X4	Y4	Z4	X5	Y5	Z5	X6	Y6	Z6	X7	Y7	Z7	X8	Y8	Z8	X9	Y9	Z9	X10	Y10	Z10	X11	Y11	Z11	X12	Y12	Z12	X13	Y13	Z13	X14	Y14	Z14	X15	Y15	Z15	X16	Y16	Z16	X17	Y17	Z17	X18	Y18	Z18	X19	Y19	Z19	X20	Y20	Z20	X21	Y21	Z21	X22	Y22	Z22	X23	Y23	Z23	X24	Y24	Z24	X25	Y25	Z25	X26	Y26	Z26	X27	Y27	Z27	X28	Y28	Z28	X29	Y29	Z29	X30	Y30	Z30	X31	Y31	Z31	X32	Y32	Z32	X33	Y33	Z33	

71	54.185000000000	844.297524931102	995.655422591807	441.951632182656	1053.202506735250	1409.136260690794	256.292969669012	1140.156573155003	1339.656480223215	427.119668626190	1048.810114816813	1429.392629879359	589.543861624443	1050.648275072584	1476.187422976832	406.738733943742	1063.454974675740	924.529208278100	569.188384782330	1062.527230130570	950.113352674219	293.496889306745	1140.482549651669	758.967321418420	543.933503049802	1101.662462680902	636.375202581756	620.440536870591	1194.115736150813	602.721296525703	542.416940398794	1231.015781080685	521.857034733279	559.785386626576	1050.327806623589	723.418293637088	315.619893839480	925.035656986175	637.920835962192	253.056077180867	978.586120976442	539.573270070302	314.816480073884	960.663604592827	475.492334839115	323.437904793232	926.033859670871	412.176046679923	316.092771471014	822.327837442052	308.779338724570	265.871690071792	860.539470026075	192.886512401466	340.232831477782	1219.482030698471	433.388763042867	571.466761991413	1170.952908197150	318.890773781570	636.778126970137	1244.453481317825	234.883972380384	587.549342899447	1160.032272949642	45.568333253888	564.444313955250	1321.364936487161	124.105604595419	601.021353436755	1244.763437536340	47.920502385573	636.308520272486	1446.291245003504	91.159054978561	627.347565298633	720.048470848930	42.111178262469	382.820670965159	797.883146229307	35.800029853511	306.913994169489	880.527519282344	95.881895639393	335.577332543705	1009.417793221429	41.266227208537	316.099914830415	1083.865251283197	1073.313871847768	119.946777530534	1333.852798437151	1028.105077786614	151.545314656551	872.666398251223	1151.736125437443	730.811371412377	819.996125503667	896.623078357081	764.360369883343	
72	54.196928571429	845.997272478620	993.578805164031	444.954320037076	1053.405684411866	1407.415255865473	258.597884379429	1140.665020158452	1338.381344049888	429.408563856301	1049.234925519164	1428.150095902937	591.858121102984	1050.829306677422	1474.595313819345	408.940432047423	1065.687050446587	922.480345650328	571.327829520079	1063.897967470688	948.794005289395	295.670522049653	1142.335976460798	756.053022815402	545.857870801377	1101.677701173030	632.915326623539	620.693337633217	1194.334155312921	599.502098950192	542.990207768796	1230.136962079990	518.559932380840	559.080460782818	1050.486429829763	721.846843532277	316.977340498011	924.192157171658	637.330852315688	254.679355403609	977.110947651629	538.322235708633	316.026215111139	958.564701399845	473.969689844998	324.607715459173	922.929415543055	411.000117115019	317.099977706563	817.547422889113	309.374209621354	266.709615207226	854.027662234142	192.629758279423	340.473022634736	1218.766343163626	429.757074563897	570.649212260493	1170.001285656555	315.101586771728	635.279230401167	1243.277108240485	231.271744051059	585.711072238716	1157.813910844967	43.664108451498	562.312740669722	1319.839418954371	120.042859446903	598.268380209957	1242.583713967377	45.388471554194	634.118151199727	1444.461467371921	85.898720170310	624.507261457952	711.777050825630	42.999756023497	382.613946520426	789.629640091037	36.146855646707	306.851440410377	872.497101659701	96.000249619303	335.450843486612	1001.143979727874	40.839873547122	316.044608464047	1086.470409022691	1071.720456622616	123.176846125657	1337.790137020308	1037.230675509805	154.497548942123	869.421479685425	1153.174696449910	731.744789931790	813.684714445465	898.371629286916	764.443831139556	
73	54.208857142857	847.784513579476	991.740411075659	448.179475044709	1053.662840810846	1405.909822044359	261.065880210935	1141.331934159791	1337.283684980300	431.807010273942	1049.916087423491	1427.004241833517	594.409535593553	1051.157816969487	1473.207404161528	411.363194082557	1068.084128134189	920.626601296048	573.560990801159	1065.303960423649	947.536692635761	297.973907711898	1144.575712106657	753.517725351354	547.760262133871	1102.060947520480	629.895395037814	620.883934176948	1194.882491618789	596.751325447961	543.455268967625	1229.566300315735	515.444650973301	558.320196974533	1050.960089163185	720.398532746873	318.498439511438	923.739846245017	636.780468505413	256.522833508494	976.136480180297	537.118868125899	317.403204336336	957.010238471436	472.401794306465	325.944053234004	920.275174404903	409.810946960036	318.262746379479	813.135145558892	310.126359365767	267.665881070150	847.728120206697	192.470070929589	340.751056133810	1217.971861676199	426.216053604069	569.834195828283	1168.495168723329	311.678795978801	633.934260731268	1240.973714269457	227.633717500337	583.949483085425	1153.297792723573	42.353681690299	560.518685715542	1316.506135555341	115.648140530703	595.620010858186	1238.178559859645	43.079040636020	632.220782438558	1440.666003655595	79.631943014522	621.622578505040	703.544798620230	44.181768350168	382.363440803964	781.411849006158	36.609642498882	306.755561228835	864.585285879283	96.179300573735	335.261654785308	992.894874464512	40.401032098492	315.972289959638	1088.618835640367	1070.141522089957	126.705255927021	1340.802606118198	1045.443989970428	157.579151397476	867.321312604534	1153.943935893790	732.780554590883	809.010637554026	899.358023517410	764.348679439495	
74	54.220785714286	849.626514911590	990.227360217135	451.578533079714	1054.015257726314	1404.692001947068	263.689920902488	1142.180496398528	1336.417336887437	434.310387512174	1050.869586518174	1426.009617489140	597.176912335564	1051.676516036465	1472.091418867020	414.003801305009	1070.601416817194	919.052797182691	575.879777140387	1066.730023696357	946.411083453532	300.391277957190	1147.115149974034	751.440053003736	549.610855158777	1102.812254031862	627.449683131340	621.107954809396	1195.714096447399	594.551714777536	543.865080482210	1229.277088991012	512.636588690858	557.626087303774	1051.711391239321	719.136489594229	320.179423953695	923.658471826787	636.315037011321	258.565205170161	975.668647577057	536.014580275845	318.919427433968	956.026030516455	470.825941306937	327.383719772813	918.072190598324	408.662406596510	319.534256500844	809.083402012484	311.094596400532	268.725730212951	841.661398178661	192.463782003048	341.031494432511	1217.149330343132	422.933305565976	569.134901422982	1166.627992452024	308.741349611972	632.895032860009	1237.804980060377	224.154796400321	582.385259998095	1147.004838598589	41.575453054500	559.146514836520	1311.728881399064	111.229639118314	593.240354373252	1232.055034285854	41.079914322066	630.713172473203	1435.331150089542	72.916544674621	618.868489761505	695.368923453643	45.731781349653	382.065049633304	773.237913012220	37.215237479039	306.623295858981	856.831160982451	96.425672281497	334.984316223280	984.672723526572	39.972014522173	315.885403783232	1090.246538515206	1068.623414024137	130.510974138737	1342.925536996939	1052.635445037860	160.767693934483	866.404348257361	1154.046130777884	733.966860442976	806.039676378160	899.583308643009	764.138878173588	
